<svg width="10" height="7" fill="none" xmlns="http://www.w3.org/2000/svg"><path d="M4.23375 6.00892L.20924 1.39535C-.265713.852526.120291 3e-7.841112 3e-7H8.89014c.16132-.0001387.31926.0463608.45491.1339307.13564.087569.24325.212497.30992.359821.06668.147325.0896.310802.06602.470854-.02359.160054-.09267.309894-.19898.431584L5.4975 6.00808c-.07876.09039-.1759.16284-.28488.21248-.10899.04964-.2273.07532-.34699.07532-.1197 0-.23801-.02568-.347-.07532-.10898-.04964-.20611-.12209-.28488-.21248v.00084z" fill="#0284C7"/></svg>