<svg width="22" height="22" fill="none" xmlns="http://www.w3.org/2000/svg"><path fill-rule="evenodd" clip-rule="evenodd" d="M15.0838 6.83377c.1924-.19075.4522-.29811.7231-.29885.271-.00075.5313.10517.7248.29485.1935.18969.3045.4479.3092.71882.0046.27091-.0976.53276-.2845.72893l-5.489 6.86128c-.0944.1016-.2082.1831-.3348.2397-.1266.0566-.2632.0871-.4019.0897-.1386.0026-.2763-.0229-.40491-.0747-.12858-.0519-.24538-.1292-.34341-.2272L5.9455 11.528c-.10132-.0944-.18258-.2082-.23895-.3347-.05636-.1265-.08667-.2631-.08911-.4016-.00244-.1384.02303-.276.07489-.4044.05187-.1284.12907-.245.227-.343.09792-.09788.21457-.17508.34298-.22695s.26595-.07734.40441-.07489c.13847.00244.27502.03275.40152.08911.1265.05636.24035.13763.33476.23893l2.8793 2.8779 4.7753-6.08438c.0086-.01065.0177-.02076.0275-.03025h-.0013z" fill="#4DAE57"/></svg>