<svg width="22" height="22" fill="none" xmlns="http://www.w3.org/2000/svg"><path d="M12.2925 11.0001l3.9417-3.93251c.1726-.17261.2696-.40672.2696-.65083s-.097-.47823-.2696-.65084c-.1726-.17261-.4068-.26958-.6509-.26958-.2441 0-.4782.09697-.6508.26958L11 9.70759 7.06751 5.76592c-.17262-.17261-.40673-.26958-.65084-.26958s-.47822.09697-.65083.26958c-.17261.17261-.26959.40673-.26959.65084s.09698.47822.26959.65083l3.94167 3.93251-3.94167 3.9325c-.08592.0852-.15411.1866-.20065.2983-.04654.1117-.0705.2315-.0705.3525 0 .121.02396.2408.0705.3526.04654.1117.11473.213.20065.2983.08521.0859.1866.1541.2983.2006.11171.0465.23152.0705.35253.0705s.24083-.024.35253-.0705c.1117-.0465.21309-.1147.29831-.2006L11 12.2926l3.9325 3.9417c.0852.0859.1866.1541.2983.2006.1117.0465.2315.0705.3525.0705.121 0 .2409-.024.3526-.0705.1117-.0465.2131-.1147.2983-.2006.0859-.0853.1541-.1866.2006-.2983.0466-.1118.0705-.2316.0705-.3526 0-.121-.0239-.2408-.0705-.3525-.0465-.1117-.1147-.2131-.2006-.2983l-3.9417-3.9325z" fill="#EF4444"/></svg>