<svg width="24" height="24" fill="none" xmlns="http://www.w3.org/2000/svg"><path d="M9.75 10.5v6c0 .1989.07902.3897.21967.5303.14063.1407.33143.2197.53033.2197.1989 0 .3897-.079.5303-.2197.1407-.1406.2197-.3314.2197-.5303v-6c0-.1989-.079-.3897-.2197-.53033-.1406-.14065-.3314-.21967-.5303-.21967-.1989 0-.3897.07902-.53033.21967-.14065.14063-.21967.33143-.21967.53033zM13.5 9.75c.1989 0 .3897.07902.5303.21967.1407.14063.2197.33143.2197.53033v6c0 .1989-.079.3897-.2197.5303-.1406.1407-.3314.2197-.5303.2197-.1989 0-.3897-.079-.5303-.2197-.1407-.1406-.2197-.3314-.2197-.5303v-6c0-.1989.079-.3897.2197-.53033.1406-.14065.3314-.21967.5303-.21967z" fill="#0284C7"/><path d="M15 6h4.5c.1989 0 .3897.07902.5303.21967.1407.14065.2197.33142.2197.53033 0 .19891-.079.38968-.2197.53033-.1406.14065-.3314.21967-.5303.21967h-.8295l-1.128 10.164c-.1019.9173-.5385 1.7648-1.2262 2.3803-.6878.6155-1.5783.9558-2.5013.9557h-3.63c-.92295.0001-1.81352-.3402-2.50127-.9557-.68774-.6155-1.12434-1.463-1.22623-2.3803L5.328 7.5H4.5c-.19891 0-.38968-.07902-.53033-.21967C3.82902 7.13968 3.75 6.94891 3.75 6.75c0-.19891.07902-.38968.21967-.53033C4.11032 6.07902 4.30109 6 4.5 6H9c0-.79565.31607-1.55871.87868-2.12132C10.4413 3.31607 11.2044 3 12 3c.7956 0 1.5587.31607 2.1213.87868C14.6839 4.44129 15 5.20435 15 6zm-3-1.5c-.3978 0-.7794.15804-1.0607.43934S10.5 5.60218 10.5 6h3c0-.39782-.158-.77936-.4393-1.06066C12.7794 4.65804 12.3978 4.5 12 4.5zm-5.1615 3l1.11 9.999c.06127.5503.32329 1.0586.73592 1.4278.41264.3692.9469.5733 1.50058.5732h3.63c.5534-.0003 1.0873-.2045 1.4996-.5737.4124-.3691.6742-.8773.7354-1.4273L17.163 7.5H6.8385z" fill="#0284C7"/></svg>