<svg width="18" height="20" fill="none" xmlns="http://www.w3.org/2000/svg"><path d="M3.5.375h6.875V1.75H3.5c-.36467 0-.71441.14487-.97227.40273s-.40273.6076-.40273.97227v13.75c0 .3647.14487.7144.40273.9723.25786.2578.6076.4027.97227.4027h11c.3647 0 .7144-.1449.9723-.4027.2578-.2579.4027-.6076.4027-.9723V7.25h1.375v9.625c0 .7293-.2897 1.4288-.8055 1.9445-.5157.5158-1.2152.8055-1.9445.8055h-11c-.72935 0-1.42882-.2897-1.94454-.8055C1.03973 18.3038.75 17.6043.75 16.875V3.125c0-.72935.28973-1.42882.80546-1.94454C2.07118.664731 2.77065.375 3.5.375z" fill="#CFCFD2"/><path d="M10.375 5.1875V.375L17.25 7.25h-4.8125c-.547 0-1.0716-.2173-1.4584-.60409-.3868-.3868-.6041-.9114-.6041-1.45841z" fill="#CFCFD2"/><path fill-rule="evenodd" clip-rule="evenodd" d="M5.76324 11.5758c.06387-.0641.13973-.1149.22326-.1495.08352-.0347.17306-.0525.26349-.0525.09043 0 .17997.0178.2635.0525.08352.0346.15939.0854.22325.1495l2.26325 2.2646 2.26321-2.2646c.1291-.1291.3042-.2017.4868-.2017.1826 0 .3576.0726.4867.2017.1291.1291.2017.3041.2017.4867 0 .1826-.0726.3577-.2017.4868l-2.74996 2.75c-.06386.064-.13973.1148-.22325.1494-.08353.0347-.17307.0525-.2635.0525-.09043 0-.17997-.0178-.26349-.0525-.08353-.0346-.15939-.0854-.22326-.1494l-2.75-2.75c-.06402-.0639-.11482-.1398-.14948-.2233-.03466-.0835-.0525-.1731-.0525-.2635 0-.0904.01784-.18.0525-.2635.03466-.0835.08546-.1594.14948-.2232z" fill="#CFCFD2"/><path fill-rule="evenodd" clip-rule="evenodd" d="M9 7.25c.18234 0 .35721.07243.48614.20136.12893.12894.20136.3038.20136.48614v5.5c0 .1823-.07243.3572-.20136.4861-.12893.129-.3038.2014-.48614.2014s-.3572-.0724-.48614-.2014c-.12893-.1289-.20136-.3038-.20136-.4861v-5.5c0-.18234.07243-.3572.20136-.48614C8.6428 7.32243 8.81766 7.25 9 7.25z" fill="#CFCFD2"/></svg>